<svg width="42" height="42" viewBox="0 0 42 42" fill="none" xmlns="http://www.w3.org/2000/svg">
<path d="M41.9999 17.1098C41.9999 14.9538 40.4253 13.1679 38.3621 12.8306C38.3582 12.8253 38.352 12.8205 38.3472 12.8188L29.1536 11.5806L25.1233 3.41381C24.4968 1.78369 22.9218 0.623001 21.0703 0.623001C19.1519 0.623001 17.5257 1.86725 16.9517 3.59319L13.0838 11.5806L4.08788 12.7689C4.08701 12.7741 4.0857 12.7811 4.08438 12.7864C1.87063 12.9889 0.137695 14.8474 0.137695 17.1102C0.137695 18.5382 0.82807 19.7999 1.88988 20.5944L8.11901 26.8656L6.60482 35.1816C6.60963 35.1842 6.61401 35.1864 6.61926 35.1886C6.45257 35.6501 6.35763 36.1427 6.35763 36.6599C6.35763 39.0591 8.30232 41.0043 10.7033 41.0043C11.5149 41.0043 12.274 40.7781 12.9267 40.3878L21.1189 36.3108L28.9904 40.2526C29.6878 40.7282 30.53 41.0047 31.4373 41.0047C33.8357 41.0047 35.7804 39.06 35.7804 36.6603C35.7804 36.5352 35.7712 36.4092 35.7603 36.2832C35.7686 36.2788 35.7725 36.274 35.7804 36.267L34.1201 26.8664L40.5181 20.4199C40.5177 20.4142 40.5089 20.4028 40.501 20.3901C41.4172 19.5926 41.9999 18.4214 41.9999 17.1098Z" fill="#CABA40"/>
<path d="M41.9999 17.1098C41.9999 14.9538 40.4253 13.1679 38.3621 12.8306C38.3582 12.8253 38.352 12.8205 38.3472 12.8188L29.1536 11.5806L25.1233 3.41381C24.4968 1.78369 22.9218 0.623001 21.0703 0.623001C19.1519 0.623001 17.5257 1.86725 16.9517 3.59319L13.0838 11.5806L4.08788 12.7689C4.08701 12.7741 4.0857 12.7811 4.08438 12.7864C1.87063 12.9889 0.137695 14.8474 0.137695 17.1102C0.137695 18.5382 0.82807 19.7999 1.88988 20.5944L8.11901 26.8656L6.60482 35.1816C6.60963 35.1842 6.61401 35.1864 6.61926 35.1886C6.45257 35.6501 6.35763 36.1427 6.35763 36.6599C6.35763 39.0591 8.30232 41.0043 10.7033 41.0043C11.5149 41.0043 12.274 40.7781 12.9267 40.3878L21.1189 36.3108L28.9904 40.2526C29.6878 40.7282 30.53 41.0047 31.4373 41.0047C33.8357 41.0047 35.7804 39.06 35.7804 36.6603C35.7804 36.5352 35.7712 36.4092 35.7603 36.2832C35.7686 36.2788 35.7725 36.274 35.7804 36.267L34.1201 26.8664L40.5181 20.4199C40.5177 20.4142 40.5089 20.4028 40.501 20.3901C41.4172 19.5926 41.9999 18.4214 41.9999 17.1098Z" fill="black" fill-opacity="0.2"/>
</svg>
